<?xml version="1.0" encoding="utf-8"?>
<!-- Generator: Adobe Illustrator 17.0.0, SVG Export Plug-In . SVG Version: 6.00 Build 0)  -->
<!DOCTYPE svg PUBLIC "-//W3C//DTD SVG 1.1//EN" "http://www.w3.org/Graphics/SVG/1.1/DTD/svg11.dtd">
<svg version="1.1" id="Capa_1" xmlns="http://www.w3.org/2000/svg" xmlns:xlink="http://www.w3.org/1999/xlink" x="0px" y="0px"
	 width="536.183px" height="197.72px" viewBox="0 0 536.183 197.72" enable-background="new 0 0 536.183 197.72"
	 xml:space="preserve">
<path fill-rule="evenodd" clip-rule="evenodd" fill="#5D0227" d="M497.199,174.427c0.317,0.35,0.474,0.726,0.474,1.127
	c0,1.896-3.951,3.461-8.826,3.461c-4.865,0-8.84-1.564-8.84-3.461c0-3.081,7.785-3.738,9.693-3.555
	c2.131,0.199,4.022,0.554,6.02,1.415v-1.619c-0.967-0.325-2.182-0.625-3.173-0.749c-4.254-0.46-10.009-0.46-13.757,2.281
	c-0.111,0.046-0.249,0.14-0.394,0.259c-1.937,1.406-1.717,2.73-1.154,3.864c0.425,0.87,2.27,1.935,3.185,2.423v0.021
	c0.025,0,0.068,0.03,0.096,0.034c0.267,0.144,0.425,0.222,0.425,0.222v-0.027c3.905,1.661,7.541,1.448,11.563,1.118
	c4.705-0.715,8.143-2.739,8.143-5.103c0-1.786-2.06-3.151-3.455-3.795C497.199,172.938,497.199,173.742,497.199,174.427
	L497.199,174.427L497.199,174.427z M438.754,105.812v5.041c0.686-0.055,1.382-0.099,2.132-0.099c0.64,0,1.294,0.021,1.948,0.082
	l0.112-5.261L438.754,105.812L438.754,105.812L438.754,105.812z M437.942,110.043v-4.15c-0.854,0.458-5.164,3.099-5.143,5.925
	c-0.515,4.21,4.197,7.144,5.404,7.442c4.769,1.026,21.357,5.781,22.256,11.802c1.17,10.481-11.279,16.376-19.69,16.413l-0.632,5.967
	c0,0,2.698,4.711,11.475,7.345c5.455,0.987,8.71,0.708,10.751,0.126c2.198-0.754,5.325-2.464,6.782-4.377
	c0.27-0.804,0.441-1.578,0.608-2.18c-0.12-4.61-3.93-12.384-7.324-18.937c0.738-3.211,0.471-6.379-0.496-8.339
	c-1.215-2.112-1.656-3.108-5.587-5.527c-5.745-3.536-16.435-5.621-18.74-7.785C436.71,112.72,436.839,110.439,437.942,110.043
	L437.942,110.043L437.942,110.043z M469.702,84.049c0.924,0.9,1.686,1.775,2.36,2.748c5.568,1.37,10.519,2.902,14.782,4.214
	c-0.08-9.562-1.807-19.283-6.775-28.515L469.702,84.049L469.702,84.049L469.702,84.049z M468.603,157.801
	c-1.528,1.64-4.268,2.911-6.333,3.655l0,0c-13.599,2.987-22.601-6.738-22.83-7.778c-0.215-0.978,0.496-5.357,0.637-6.134
	c-0.408-0.021-0.92,0-1.323-0.021c-0.055,0.55-0.725,5.751-0.725,6.257c2.128,3.17,2.961,4.093,7.81,6.688
	c4.543,1.99,11.277,3.207,16.652,1.709c0.027,0,0.787-0.298,0.096-0.019c2.539-0.937,3.476-1.564,4.171-2.208
	C467.549,159.345,468.649,157.937,468.603,157.801L468.603,157.801L468.603,157.801z M492.307,170.454
	c1.033,0.133,2.014,0.35,2.94,0.611l0.429-0.277v0.016h-0.026v-9.938h-0.02v-0.048h-7.391L492.307,170.454L492.307,170.454
	L492.307,170.454z M498.357,172.277c0.845,0.458,1.556,0.971,2.119,1.548l1.507-1.548H498.357L498.357,172.277L498.357,172.277z
	 M501.458,175.236c0.183,0.415,0.296,0.854,0.296,1.317c0,3.204-4.892,5.856-11.195,6.289l-4.939,3.259h-8.09l0.296,3.486
	l-1.97,2.886l-15.223-0.025l-0.853-1.317l-15.289-0.078l-0.92-2.716l-8.17-0.236l-4.984-2.244l-0.175-2.952l0.396-3.239
	l-10.139-0.03l-2.224-3.319l-0.631-0.825v-3.348l1.686-4.054l-6.167-0.181c-1.332,1.546-4.205,2.797-9.81,2.815
	c-9.502-0.231-11.101-4.434-9.951-7.263c0.857-1.464,3.796-1.938,4.408-2.183v-51.295l5.784-6.535l1.169,0.298l5.784,6.53v41.479
	l1.597,0.016c-0.898-1.709-1.755-3.493-2.534-5.291l-4.769,4.292l-0.057,0.041l0.47,0.884l3.818,0.037v-40.572l-5.342-6.083
	l-4.738,5.041v50.995c3.005-0.298,5.849-0.188,8.822,0.142l-0.516-2.657l5.429-5.137l-2.182-0.062c0-0.018,0,7.51,0,8.371
	c-0.4-0.066-1.054-0.163-1.474-0.199v-8.211l-7.317-0.181l-0.386-0.877l0,0l-0.18-0.47l-1.457-3.456l0.067,0.03l-0.3-0.754
	l1.07-3.042l5.938-6.489c-0.112-0.318-0.2-0.678-0.316-1.038l-10.053-0.55l-0.67-1.141l-0.2,0.021l-0.953-4.269l1.69-2.4
	l7.009-6.182c-0.184-1.347-0.341-2.705-0.496-4.075l-6.021-3.138l-0.158-0.011l-2.782-0.909v-3.894l2.515-1.72l2.536-1.054
	l3.477-3.784c0-0.456,0.045-1.118,0.074-1.58l-7.729,0.655c0,0,2.516-1.773,6.555-4.251l-4.848-2.35l-1.989-1.764l0.537-4.814
	l2.959-0.561l6.084-0.062c0.278-1.596,0.629-3.14,1.007-4.67v11.976c0.475-0.279,0.938-0.545,1.412-0.827v-7.551l4.938-0.623v5.492
	c0.47-0.27,0.941-0.506,1.441-0.763v-4.913l4.309-0.534v3.348c0.466-0.236,0.946-0.456,1.436-0.676v-2.865l5.747-0.712v1.164
	c0.471-0.172,0.945-0.35,1.429-0.538v-0.802l3.875-0.511c2.91-0.909,5.834-1.594,8.636-2.011v-5.35
	c-0.696-0.087-1.66-0.321-1.861-0.969c-0.455-1.344-0.317-2.398,0.738-3.319c-0.201-0.738-1.171-1.287-2-1.581v-5.614l5.317-1.031
	l1.757,4.311l1.862,0.037l-1.755-4.624l1.417-0.259l6.108,15.737c2.373,0.263,4.733,0.144,7.066,0.694l0.791-1.258
	c-2.086-0.213-4.156-0.513-6.242-0.33l-5.878-15.201l1.619-0.339l1.115,3.058l16.948-3.174l1.978-4.077l5.163-1.152l-11.647,25.641
	c0.696,0.126,1.415,0.259,2.129,0.382l11.674-26.458l2.399-0.497c0.629,1.711,0.49,2.954-0.537,4.931L465.48,85.405
	c0.603,0.121,1.237,0.263,1.84,0.392l11.076-23.437c0.865-1.713,0.777-3.225-0.092-4.826l21.697-4.329l6.082,2.952l9.01-1.864
	l-9.368-4.67l-70.862,14.725v-5.344l2.244-0.501v-3.628l-4.402-1.257v-1.548l4.402,1.361V38.691l-4.402-1.94v-1.573l4.402,1.993
	v-11.77l0.97-0.437v-1.157l-5.372-2.366v-1.557l5.372,2.423V10.24l-5.435-2.79v12.283l-7.193,2.281V8.08l7.193-2.895l18.875,9.922
	v11.706l1.259,0.611V19.58l13.603-3.781l11.603,5.957v17.311c-0.178,4.061-4.733,5.653-10.137,6.981v5.884l10.887-2.327V11.437
	l8.257-2.609l7.832,3.914V6.204l7.698-2.343v0.215l9.848,4.453v38.185l5.418,2.89v6.239l-11.384,2.086l13.087,6.28l-0.134,5.004
	l-0.808,1.883l-6.949,5.845l-0.103,0.616l0.923-0.083l10.214,4.038v7.517l-9.472,3.447v4.734l9.677,3.223v7.423l-9.339,1.519
	l0.041,5.414l8.415,5.44l-0.267,7.155l-9.426-0.449l-1.317,4.267l7.337,7.382l-0.117,5.941l-1.299,1.035l-9.835-0.71l0.024,2.036
	l6.691,8.976v1.887l-2.36,4.963h-10.821l3.655,8.852v1.42L501.458,175.236L501.458,175.236L501.458,175.236z M487.477,182.849
	c-2.602-0.142-4.979-0.662-6.887-1.436l0.155,1.294l-3.077,1.738h7.478L487.477,182.849L487.477,182.849L487.477,182.849z
	 M477.983,173.126c0.763-0.572,1.708-1.086,2.807-1.518v-64.3l1.662-2.703h-0.022l1.341-2.073h-0.016l4.001-6.429l2.306-0.387
	l7.137,10.229v34.023h0.045v0.018l8.037,4.569h0.128v1.283h-8.165v0.055h-0.045v12.874h-1.55v-52.042l-6.557-9.443l-3.273,4.986l0,0
	l-1.774,2.707l0,0l-1.528,2.332l-0.317,58.237v2.011v1.237l-1.436,0.6c-0.695,1.411-2.178,1.269-3.256,2.694L477.983,173.126
	L477.983,173.126L477.983,173.126z M490.241,174.59h-8.469c0.766-1.154,3.53-2.02,6.803-2.02c3.86,0,7.007,1.196,7.007,2.666
	c0,1.455-3.147,2.639-7.007,2.639c-3.676,0-6.712-1.085-6.979-2.444h8.644V174.59L490.241,174.59L490.241,174.59z M497.178,170.751
	h0.022v-9.885h0.045v-0.048h0.537l0,0l0.314,0.334l3.659,9.599H497.178L497.178,170.751L497.178,170.751L497.178,170.751z
	 M495.629,159.302v-0.467l-4.829-4.494c-0.988,1.706-2.024,3.376-3.115,4.961H495.629L495.629,159.302L495.629,159.302z
	 M485.371,104.495l1.394-2.125l1.054-0.089c0.083,0.511,0.126,1.415,0.109,2.043L485.371,104.495L485.371,104.495L485.371,104.495z
	 M482.768,102.59l-1.463,2.144l-18.539,1.159c-0.355,2.144-0.988,4.588-1.796,6.184l15.843,38.558
	c0.022,0.03,0.022,0.05,0.022,0.089c-0.137,0.22-0.288,0.451-0.425,0.694c-0.466,0.238-1.123,0.3-1.274-0.098l-15.451-37.038
	c-0.711,1.008-1.682,2.994-2.818,3.651c-0.317-0.49-1.529-1.96-1.958-2.281c3.628-4.418,5.767-11.956,4.065-18.092l3.455-0.277
	c0.457,2.27,0.829,4.017,0.471,6.578L482.768,102.59L482.768,102.59L482.768,102.59z M404.132,162.52
	c-1.796-0.023-7.074-0.083-7.608,1.473c-0.566,1.573,2.219,3.255,7.208,3.22c2.04,0,5.813-0.169,6.916-2.13
	c0.6-1.253-1.558-1.889-2.51-2.105l0.008,0.023C406.688,162.691,405.036,162.536,404.132,162.52L404.132,162.52L404.132,162.52z
	 M411.585,167.87h0.038c-0.176,0.119-0.355,0.22-0.559,0.311c-0.849,0.458-1.632,0.625-1.632,0.625l0,0
	c-1.573,0.467-3.531,0.678-6.037,0.678c-7.298,0.037-9.876-3.797-8.706-5.808c1.191-2.011,7.386-1.924,10.009-1.883
	c0.782,0.016,2.107,0.087,3.277,0.275v0.021c2.04,0.275,4.622,0.724,5.137,2.441c0.071,0.144,0.113,0.302,0.113,0.479
	c0,0.149-0.022,0.36-0.063,0.557C412.997,166.635,412.323,167.378,411.585,167.87L411.585,167.87L411.585,167.87z M397.711,164.13
	h6.849v0.575h-6.736c0.541,0.799,2.672,1.551,5.883,1.551c2.373-0.018,4.467-0.534,5.409-0.964l-0.041-1.461
	c-1.354-0.57-4.094-0.953-5.009-0.815c-1.504-0.014-5.859-0.066-6.333,0.999C397.733,164.052,397.711,164.091,397.711,164.13
	L397.711,164.13L397.711,164.13z M413.92,166.491c0.088-0.529,0.159-1.223,0.159-1.725c-0.022-0.538-0.387-1.09-0.766-1.486
	l4.226-2.733c1.02,1.45,2.107,2.787,3.202,4.086l-0.758,1.858H413.92L413.92,166.491L413.92,166.491z M405.71,135.418l-5.663-0.08
	l-1.953-0.149l1.19-0.066l5.696-2.446C405.215,133.611,405.461,134.518,405.71,135.418L405.71,135.418L405.71,135.418z
	 M402.403,117.106l-2.31-0.937l2.243,0.277C402.362,116.655,402.384,116.868,402.403,117.106L402.403,117.106L402.403,117.106z
	 M430.909,177.929l-8.186,0.055l1.032-1.569l3.007-5.731c1.523,1.301,3.081,2.48,4.688,3.548L430.909,177.929L430.909,177.929
	L430.909,177.929z M443.572,186.564l-7.696-0.158l1.179-2.49l1.091-5.95c1.586,0.657,3.768,1.283,5.426,1.699V186.564
	L443.572,186.564L443.572,186.564z M449.296,189.42l9.293-0.037l-0.6-0.93l-0.674-8.101c-1.686,0.254-3.393,0.394-5.146,0.394
	c-0.367,0-0.738-0.019-1.09-0.019l-0.833,6.876L449.296,189.42L449.296,189.42L449.296,189.42z M465.706,179.249h6.303l-1.521-3.548
	c-1.548,0.886-3.147,1.656-4.763,2.322L465.706,179.249L465.706,179.249L465.706,179.249z M472.738,180.904h-7.054l0.155,7.217
	l-0.558,2.561h8.909l1.708-1.915l-0.854-4.59l-1.707-1.844L472.738,180.904L472.738,180.904L472.738,180.904z M497.424,147.131
	h7.745l6.574,8.845h-9.401l-1.799-3.113L497.424,147.131L497.424,147.131L497.424,147.131z M502.341,157.634h9.626l-1.878,3.96
	l-9.435-0.112L502.341,157.634L502.341,157.634L502.341,157.634z M510.394,126.749l-1.453,4.102l-8.977-0.742l0,0
	c0.442-2.061,0.85-4.164,1.166-6.292l9.13,2.913L510.394,126.749L510.394,126.749L510.394,126.749z M501.191,131.504l8.47,0.804
	l6.616,6.074l-9.044-0.841L501.191,131.504L501.191,131.504L501.191,131.504z M507.254,139.098l9.339,0.612l-0.266,4.535
	l-9.519-0.733L507.254,139.098L507.254,139.098L507.254,139.098z M511.989,109.344l0.049,5.387l-9.877-0.877
	c0.104-1.899,0.151-3.827,0.151-5.76c0-0.291,0-0.586,0-0.854L511.989,109.344L511.989,109.344L511.989,109.344z M504.02,115.29
	l8.493,0.719l6.105,3.708l-8.245-0.969L504.02,115.29L504.02,115.29L504.02,115.29z M511.472,120.416l8.957,0.696l-0.125,4.931
	l-9.347-0.921L511.472,120.416L511.472,120.416L511.472,120.416z M404.739,57.485l-0.629,0.048l-2.289,4.727l2.918,3.09V57.485
	L404.739,57.485L404.739,57.485z M404.739,74.214l-5.637-1.58l-1.837,5.373l7.473,6.264V74.214L404.739,74.214L404.739,74.214z
	 M412.146,101.545c-0.157,2.295-0.116,4.127-0.116,6.548c0,33.222,17.087,60.329,38.011,60.329c7.314,0,14.184-3.34,20.019-9.12
	c-0.03,0.016-0.042,0.016-0.066,0.016c0.403-0.417,0.844-0.87,1.21-1.266c0.016,0,0.05,0,0.05,0.016
	c0.279-0.337,0.574-0.653,0.866-0.973c0.066-0.071,0.096-0.112,0.096-0.112l0,0c0.221-0.254,0.444-0.504,0.674-0.783
	c-0.404,0.199-0.829,0.371-1.233,0.547c-0.091,0.11-0.166,0.206-0.253,0.288c-0.071,0.06-0.113,0.096-0.15,0.151
	c-0.204,0.375-3.798,3.665-3.798,3.665s0.022,0,0.063,0.016c-3.477,2.801-8.548,5.444-14.811,5.169
	c-12.437-0.547-19.912-8.891-20.923-9.734c-0.992-0.85-0.378-1.466-0.378-1.466l3.992-8.018c-0.516-0.115-1.033-0.286-1.548-0.449
	c-0.584,1.04-3.277,6.015-3.753,6.771c-0.537,0.836-1.611,0.158-1.611,0.158s-1.17-1.411-1.479-2.015
	c-0.29-0.616,0.308-1.635,0.308-1.635l3.053-4.748c-0.47-0.254-0.932-0.513-1.391-0.799l-3.093,5.27
	c-7.328-11.603-10.709-27.246-10.709-40.698l18.873-1.141c0.676-0.648,2.278-1.933,2.837-2.192l-21.572,1.344v-5.453
	L412.146,101.545L412.146,101.545L412.146,101.545z M478.408,148.102c0.297-0.557,0.608-1.106,0.908-1.688l-11.726-28.57
	c1.553-2.932,2.6-6.186,3.056-9.528l-2.561,0.117c-0.607,2.852-1.662,5.71-2.984,8.355l12.815,31.023
	C478.005,147.992,478.187,148.074,478.408,148.102L478.408,148.102L478.408,148.102z M480.049,144.939
	c4.988-10.208,7.944-22.979,7.944-36.845c0-0.27-0.049-0.375-0.049-0.653l-12.988,0.68c-0.408,4.308-2.161,9.746-4.243,12.78
	L480.049,144.939L480.049,144.939L480.049,144.939z M447.389,14.951v9.895l2.306,1.088v-9.858L447.389,14.951L447.389,14.951
	L447.389,14.951z M446.172,24.213v-9.918l-2.485-1.321v9.867L446.172,24.213L446.172,24.213L446.172,24.213z M442.293,23.098
	l-0.042-10.719l-2.856-1.498v11.921l1.689,0.866L442.293,23.098L442.293,23.098L442.293,23.098z M424.022,8.671l-5.747,2.318v13.303
	l5.747-1.826V8.671L424.022,8.671L424.022,8.671z M416.839,11.568l-4.309,1.725v12.826l4.309-1.351V11.568L416.839,11.568
	L416.839,11.568z M411.089,13.893l-4.938,1.976v12.279l4.938-1.551V13.893L411.089,13.893L411.089,13.893z M406.151,29.671V42.8
	l4.938-1.42V28.098L406.151,29.671L406.151,29.671L406.151,29.671z M406.151,44.295V57.65l4.938-1.026V42.88L406.151,44.295
	L406.151,44.295L406.151,44.295z M406.151,59.134v12.657l4.938-0.754V58.111L406.151,59.134L406.151,59.134L406.151,59.134z
	 M406.151,73.245v13.486l4.938-0.616V72.503L406.151,73.245L406.151,73.245L406.151,73.245z M406.151,98.772v1.283l-2.665,0.234
	C403.487,100.288,404.469,99.708,406.151,98.772L406.151,98.772L406.151,98.772z M411.089,99.635v-3.532
	c0.45-0.229,0.941-0.467,1.441-0.726v4.143L411.089,99.635L411.089,99.635L411.089,99.635z M416.839,99.145v-5.866
	c0.466-0.22,0.946-0.435,1.436-0.646v6.39L416.839,99.145L416.839,99.145L416.839,99.145z M424.022,98.506v-4.888l1.429,0.47v4.301
	L424.022,98.506L424.022,98.506L424.022,98.506z M424.022,91.527v-1.379c0.471-0.169,0.945-0.369,1.429-0.561v2.403L424.022,91.527
	L424.022,91.527L424.022,91.527z M432.644,97.78v-1.324l3.121,1.047L432.644,97.78L432.644,97.78L432.644,97.78z M432.644,94.347
	v-7.189c0.172-0.055,0.38-0.115,0.58-0.167l5.37,9.292L432.644,94.347L432.644,94.347L432.644,94.347z M432.644,83.405V69.246
	l-7.193,1.083v13.969L432.644,83.405L432.644,83.405L432.644,83.405z M432.644,67.79V53.667l-7.193,1.463v13.747L432.644,67.79
	L432.644,67.79L432.644,67.79z M432.644,52.179V36.703l-7.193,2.043v14.922L432.644,52.179L432.644,52.179L432.644,52.179z
	 M432.644,35.177V21.222l-7.193,2.304v13.722L432.644,35.177L432.644,35.177L432.644,35.177z M424.022,84.48V70.543l-5.747,0.875
	v13.788L424.022,84.48L424.022,84.48L424.022,84.48z M416.839,85.389V71.633l-4.309,0.655v13.635L416.839,85.389L416.839,85.389
	L416.839,85.389z M424.022,69.091V55.429l-5.747,1.196v13.332L424.022,69.091L424.022,69.091L424.022,69.091z M416.839,70.172
	V56.927l-4.309,0.889v13.012L416.839,70.172L416.839,70.172L416.839,70.172z M424.022,53.974V39.153l-5.747,1.661v14.345
	L424.022,53.974L424.022,53.974L424.022,53.974z M416.839,55.449V41.221l-4.309,1.241v13.873L416.839,55.449L416.839,55.449
	L416.839,55.449z M424.022,37.662V23.984l-5.747,1.821v13.504L424.022,37.662L424.022,37.662L424.022,37.662z M416.839,39.726
	V26.261l-4.309,1.384v13.319L416.839,39.726L416.839,39.726L416.839,39.726z M487.052,10.776l7.77,4.056v7.65L487.052,10.776
	L487.052,10.776L487.052,10.776z M486.561,47.715l10.934-2.341l-10.934-15.623V47.715L486.561,47.715L486.561,47.715z M502.52,44.41
	l3.478-0.847l4.491,2.203V9.981l-7.969-3.518V44.41L502.52,44.41L502.52,44.41z M452.778,28.943l-9.291-4.306v32.512l9.291-1.99
	V28.943L452.778,28.943L452.778,28.943z M459.604,53.72l6.776-1.477v-5.916l-6.8-3.784L459.604,53.72L459.604,53.72L459.604,53.72z
	 M461.3,41.093l5.821,3.202c3.526-0.772,7.791-1.697,9.273-4.947V22.779l-7.096-3.342v18.456
	C469.165,39.252,465.502,40.36,461.3,41.093L461.3,41.093L461.3,41.093z M459.414,25.399l2.906-1.005v9.725l-2.906,0.978V25.399
	L459.414,25.399L459.414,25.399z M504.586,106.467l7.633,1.516l7.049-0.641l-7.582-1.789L504.586,106.467L504.586,106.467
	L504.586,106.467z M512.439,103.746l8.906,2.522l0.096-4.714l-8.748-2.799L512.439,103.746L512.439,103.746L512.439,103.746z
	 M511.385,96.786v-4.114l-8.982-2.936c-0.137,0.06-0.283,0.142-0.42,0.22c0.159,2.247,0.179,4.478,0.068,6.699l0.262,0.13H511.385
	L511.385,96.786L511.385,96.786z M504.22,88.559l7.77,2.801l8.639-2.957l-9.269-3.291C509.524,86.259,506.56,87.414,504.22,88.559
	L504.22,88.559L504.22,88.559z M512.009,83.511l9.298,3.497v-4.386l-8.96-3.369L512.009,83.511L512.009,83.511L512.009,83.511z
	 M508.125,60.117l9.976,4.897v3.209l-9.9-4.778L508.125,60.117L508.125,60.117L508.125,60.117z M517.648,69.769l-7.184,5.895
	l-9.093-4.246l6.853-6.021L517.648,69.769L517.648,69.769L517.648,69.769z M500.098,72.982l9.317,4.175l-0.05,0.595l-2.805,0.176
	l-6.355,1.184C500.343,77.063,500.292,75.032,500.098,72.982L500.098,72.982L500.098,72.982z M432.799,142.092
	c0,0,1.908-0.513,1.107-0.912c-0.811-0.392-2.573-0.392-3.267-0.779c-0.695-0.415-0.895-0.912,0.095-1.01
	c1.007-0.119,1.258-0.309,1.349-1.113c0.117-0.808,0-3.818,0-3.818s-0.695-0.577-1.444-1.001c0.074,1.205,0.116,1.858-0.017,1.436
	c-0.066,0.131-0.479-0.841-0.829-1.823c-0.071-0.016-0.157-0.055-0.229-0.055c-0.046,0-0.116-0.016-0.124-0.016
	c-0.551-0.066-1.066-0.149-1.554-0.22c0.242,1.844,0.488,3.06,0.303,2.517c-0.083,0.16-0.716-1.514-1.144-2.666
	c-0.425-0.089-0.8-0.192-1.158-0.266c0.487,1.775,0.875,3.051,0.428,2.822c-0.137,0.209-1.011-2.041-1.398-3.085
	c-1.632-0.492-2.553-1.042-2.553-1.628c0-0.538,0.736-1.049,2.065-1.471c-0.049-0.506-0.095-1.024-0.095-1.294
	c0-0.595-0.083-1.922-0.083-1.922s0.687-1.296,1.004-2.109c0.286-0.799,1.386-0.188,0.286,1.106
	c-0.754,0.799-0.754,2.345-0.495,4.017c0.457-0.135,0.975-0.254,1.536-0.376c-0.021-0.254-0.021-0.472-0.021-0.634
	c0-0.577,0.292-1.189,0.292-1.189s0.316-2.009,0.604-2.81c0.291-0.815,3.21-2.43,1.016-0.114c-0.766,0.795-1,2.602-0.945,4.567
	c0.528-0.103,1.123-0.195,1.752-0.291c0-0.179,0-0.328,0-0.458c0-0.607,0.4-0.893,0.4-0.893s0.692-3.438,1.012-4.242
	c0.287-0.786,3.213-2.398,0.99-0.099c-0.836,0.882-1.128,3.165-1.194,5.529c1.299-0.149,2.714-0.296,4.218-0.366
	c0.674-2.696,2.269-4.226,3.772-6.431c-4.131-1.278-6.758-5.387-6.796-7.567c-6.379,2.957-10.626,8.878-10.626,15.694
	c0,9.702,8.887,17.636,19.829,17.636c6.878,0,20.784-5.653,18.02-14.851c-1.084,0.36-2.81,0.692-4.53,0.971
	c-0.52,0.921-1.848,3.33-1.981,3.122c-0.8,0.323,0.133-1.175,0.791-2.943c-0.97,0.142-2.003,0.231-3.11,0.337
	c0,0.014-0.013,0.032-0.013,0.055c-0.613,0.694-1.504,1.493-1.504,1.493s0.291,2.421-0.403,2.529
	c-0.725,0.092-1.012,0.609-1.012,0.609l-1.902,2.206c0,0-0.7,0.895-1.625,1.294c-0.899,0.412-1.595,2.128-1.595,2.128
	c10.643,1.106,15.335-8.921,15.136-9.34c0,0,1.202-0.291,0.083,1.525c-2.29,5.966-8.211,9.439-16.905,9.489
	c-1.766-0.05-2.532-0.066-2.485-0.366c-1.121,0.637-1.3-1.154-1.3-1.154l1.371-1.768c0,0,0.582-0.616,0.777-2.623
	c0.1-0.909,0.725-1.566,1.354-2.022c-0.163,0.05-0.299,0.094-0.433,0.115c-0.803,0.105-1.899,2.112-1.816,2.806
	c0.118,0.717-0.398,1.725-1.302,2.02c-0.895,0.309-1.099,1.521-1.099,1.521s-1.033,0.476-2.011,0.476
	c-0.684,0.019-7.798-3.559-5.201-3.921C429.597,140.262,432.799,142.092,432.799,142.092L432.799,142.092L432.799,142.092z
	 M504.377,58.937V56.97l-4.93-2.224l-4.581,2.165c0.984,2.169,1.658,4.292,2.061,6.608L504.377,58.937L504.377,58.937
	L504.377,58.937z M468.173,88.321c0.496,1.104,1.37,2.728,2.044,6.235l-2.559,0.222c-0.046-0.889-1.729-5.747-2.94-7.217
	L468.173,88.321L468.173,88.321L468.173,88.321z M474.506,94.143c-0.041-0.712-0.537-3.062-1.274-4.585
	c7.42,1.816,13.103,3.566,13.103,3.566L474.506,94.143L474.506,94.143L474.506,94.143z M459.043,89.537
	c0.875,1.12,1.941,2.586,2.802,5.726l-3.486,0.316c-0.486-1.651-1.141-3.523-2.147-4.489L459.043,89.537L459.043,89.537
	L459.043,89.537z M448.579,68.914l15.465-2.957l-5.925,12.799c-2.132-0.183-4.197-0.375-6.221-0.357L448.579,68.914L448.579,68.914
	L448.579,68.914z M438.72,72.904v-2.167h4.113v2.21C441.867,72.774,439.82,72.732,438.72,72.904L438.72,72.904L438.72,72.904z
	 M445.208,74.977l0.474-0.396l3.052,8.385c-0.534-0.034-1.391-0.057-1.924-0.098l-2.094-5.763
	C445.098,76.617,445.731,75.625,445.208,74.977L445.208,74.977L445.208,74.977z M459.867,123.551
	c-1.012-2.544-2.581-4.473-4.688-6.582c-3.586-3.383-8.69-5.476-14.293-5.476c-1.066,0-2.07,0.071-3.083,0.199
	c-0.027,0.68,0.076,1.388,0.5,1.736C444.761,117.184,454.418,117.773,459.867,123.551L459.867,123.551L459.867,123.551z
	 M432.17,110.088l-8.669,0.451c-0.424,2.877-0.041,8.502-0.041,8.502l-0.046,0.296c2.02-2.815,4.856-5.117,8.236-6.628
	C431.633,111.767,431.767,110.936,432.17,110.088L432.17,110.088L432.17,110.088z M442.992,78.041
	c-0.117-0.05-0.25-0.091-0.357-0.151c-0.542-0.236-1.396-0.705-1.845-0.671c-0.355,0.039-1.366,0.444-1.954,0.614v5.291
	c0.695-0.078,1.392-0.158,2.087-0.192c0.646-0.064,1.328-0.073,1.998-0.101L442.992,78.041L442.992,78.041L442.992,78.041z
	 M443.554,76.876c-0.858-0.193-2.049-0.953-2.861-0.875c-0.329,0.044-1.358,0.488-1.728,0.538c-0.358,0.018-1.653-0.092-1.878-0.749
	c-0.199-0.676-0.248-0.497,0.046-1.15c0.358-0.453,1.033-1.186,1.832-1.097c0.97-0.181,3.752-0.062,4.18,0.149
	c0.446,0.236,1.262,0.889,1.262,1.722C444.407,76.221,443.554,76.876,443.554,76.876L443.554,76.876L443.554,76.876z M439.773,78.33
	h-0.507v3.284h0.507V78.33L439.773,78.33L439.773,78.33z M439.773,82.045h-0.507v0.369h0.507V82.045L439.773,82.045L439.773,82.045z
	 M438.525,91.374h1.552v-5.813c0.617-0.071,1.225-0.128,1.817-0.172c0.357-0.023,0.741-0.034,1.098-0.057l-0.117,6.118l-2.061,4.285
	L438.525,91.374L438.525,91.374L438.525,91.374z M438.049,85.881v4.652l-2.224-4.207C436.592,86.161,437.332,85.998,438.049,85.881
	L438.049,85.881L438.049,85.881z M438.924,86.326h-0.575v0.577h0.575V86.326L438.924,86.326L438.924,86.326z M438.924,88.788h-0.575
	v1.924h0.575V88.788L438.924,88.788L438.924,88.788z M443.641,105.535l-0.087,3.901c0,0,4.484-0.337,4.284-2.753
	c-0.2-2.524-2.24-4.077-4.714-4.068c-3.842,0-7.09-0.367-8.597-2.586l-4.355,0.534c-0.884,1.156-0.33,2.964,1.015,3.305
	c1.096,0.192,3.614,0.71,4.51,0.71c0.895,0,6.216,0.286,6.216,0.286C442.717,104.919,443.662,105.118,443.641,105.535
	L443.641,105.535L443.641,105.535z M434.931,99.615c1.482,1.392,3.215,2.219,5.322,2.219h2.739l0.062-2.932L434.931,99.615
	L434.931,99.615L434.931,99.615z M488.867,93.456l-87.425,7.59c0,0,23.684-15.265,40.263-16.408
	C459.267,83.479,488.867,93.456,488.867,93.456L488.867,93.456L488.867,93.456z M453.288,85.845
	c1.371,0.254,3.998,1.885,4.272,2.359l-2.76,1.438c-1.599-1.438-4.044-2.822-6.499-3.383l0.458-0.827
	C450.246,85.526,451.77,85.668,453.288,85.845L453.288,85.845L453.288,85.845z M444.565,96.745l17.817-9.509
	c-0.491-0.096-0.965-0.176-1.461-0.245l-18.445,9.78l-0.096,0.163l-0.241,0.025L444.565,96.745L444.565,96.745L444.565,96.745z
	 M438.999,96.974l0.125,0.238l0.649-0.06l-5.782-10.371c0.403-0.087,0.782-0.218,1.19-0.318l5.633,10.611l-3.66,0.314l-17.013-5.607
	c0.421-0.178,0.85-0.375,1.297-0.547L438.999,96.974L438.999,96.974L438.999,96.974z M433.561,86.903c-0.022,0-0.041,0-0.041,0
	S433.54,86.903,433.561,86.903L433.561,86.903L433.561,86.903z M448.156,85.389l-6.421,11.585l-0.899,0.101l5.75-11.743
	C446.627,85.332,448.712,85.433,448.156,85.389L448.156,85.389L448.156,85.389z M493.581,93.911l-96.702,8.248
	c0,0,25.973-17.166,44.268-18.325C460.584,82.521,493.581,93.911,493.581,93.911L493.581,93.911L493.581,93.911z M451.852,128.363
	v4.123c0.542-0.046,1.058-0.101,1.553-0.158c0.313-1.099,0.4-2.208-0.158-3.012c-0.291-0.327-0.425-0.63-0.47-0.866
	C452.486,128.427,452.168,128.384,451.852,128.363L451.852,128.363L451.852,128.363z M450.062,132.642
	c0.046-1.083,0.071-3.603-0.229-4.452c-0.488-0.037-1.012-0.083-1.532-0.101c-0.284,0.554-0.388,1.067,0.058,1.331
	c0.894,0.502,0.4,2.32-0.322,2.609c-0.249,0.096-0.536,0.373-0.808,0.774C448.213,132.77,449.167,132.699,450.062,132.642
	L450.062,132.642L450.062,132.642z M444.987,123.077c-2.153,1.115-1.325-0.055-1.346,4.15c0.112,0,0.2,0,0.308,0
	c0.192-0.348,0.392-0.623,0.392-0.623s1.707-0.618,1.994-2.426c0.041-0.27,0.155-0.479,0.271-0.595
	C446.131,123.393,445.456,123.256,444.987,123.077L444.987,123.077L444.987,123.077z M449.233,124.749
	c0.134,0.584,0.272,1.415,0.021,1.855c-0.137,0.211-0.338,0.511-0.57,0.836c1.562,0.124,3.014,0.27,4.317,0.438
	c0.109-0.055,0.221-0.046,0.347,0.037c1.09,0.137,2.438,0.398,3.314,0.584C455.604,127.131,452.527,125.778,449.233,124.749
	L449.233,124.749L449.233,124.749z M458.793,131.229c-0.087-0.717-0.741-1.594-1.278-2.045c-1.038-0.282-2.128-0.403-3.173-0.541
	l0,0c-0.201-0.021-0.42-0.06-0.645-0.076c0.224,0.554,0.515,1.067,0.741,1.608c0.046,0.458,0.083,0.84,0.083,0.84v1.148
	C456.323,131.906,457.918,131.579,458.793,131.229L458.793,131.229L458.793,131.229z M430.596,132.401
	c-0.066-1.148-0.108-2.568-0.108-3.974c1.232-0.133,2.607-0.254,4.063-0.339c-0.253,1.012-0.516,2.13-0.771,3.14
	c-0.391,1.706-2.193,1.099-2.689,1.099C430.98,132.328,430.796,132.367,430.596,132.401L430.596,132.401L430.596,132.401z
	 M429.247,128.567c-0.041,0.676-0.063,1.354-0.063,1.354l-0.116,1.202c0,0,0.178,0.534,0.428,1.184
	c-0.608-0.055-1.161-0.144-1.707-0.227c-0.104-1.019-0.22-2.16-0.261-3.278C428.056,128.73,428.622,128.643,429.247,128.567
	L429.247,128.567L429.247,128.567z M426.62,128.968c0.076,0.687,0.142,1.349,0.142,1.349l-0.121,1.207c0,0,0.055,0.142,0.141,0.383
	c-0.378-0.078-0.76-0.144-1.098-0.24c-0.199-0.738-0.395-1.558-0.537-2.35C425.57,129.183,426.066,129.085,426.62,128.968
	L426.62,128.968L426.62,128.968z M424.471,129.513c0.047,0.408,0.068,0.705,0.068,0.705l0.18,1.179
	c-0.938-0.293-1.458-0.632-1.458-0.987C423.26,130.109,423.681,129.804,424.471,129.513L424.471,129.513L424.471,129.513z
	 M448.083,133.535c-0.398,0.034-0.804,0.05-1.236,0.076c-0.242,0.682-0.4,1.571-0.313,2.641c0.199,2.407-1.994,2.929-2.711,3.122
	c-0.7,0.195-1.99,0.096-2.207,1.109c-0.201,0.994-0.804,1.807-1.303,2.006c-0.379,0.158-0.783,0.831-1.479,1.537
	c1.033-0.557,2.562-1.102,2.782-1.328c0.496-0.511,1.417-1.816,1.417-1.816s0.495-0.595,1.594-0.893
	c1.103-0.314,1.907-1.818,1.907-1.818s-0.087-1.315,0.608-2.006c0.695-0.703,0.895-1.812,0.895-1.812
	S448.017,133.911,448.083,133.535L448.083,133.535L448.083,133.535z M442.855,133.727c-0.271,0.016-0.537,0.016-0.834,0.016
	c-0.108,0.14-0.187,0.199-0.187,0.199s-0.417,1.415-0.417,1.995c0,0.341-0.311,0.779-0.724,1.106
	c0.516-0.27,0.924-0.385,0.924-0.385s1.507,0.602,1.216-1.718C442.768,134.518,442.792,134.103,442.855,133.727L442.855,133.727
	L442.855,133.727z M443.754,127.93c-0.019,0.383,0.088,0.756,0.587,0.978c1.299,0.605-0.117,2.32-0.117,2.32s-0.738,0.6-1.17,1.706
	c-0.154,0-0.311,0-0.471,0c0.451-0.886,0.971-2.423,1.033-5.02C443.662,127.914,443.704,127.914,443.754,127.93L443.754,127.93z"/>
<g>
	<text transform="matrix(1 0 0 1 84.6467 80.3528)" fill="#878787" font-family="'SourceSansPro-Regular'" font-size="24">Instituto Politécnico Nacional</text>
	<text transform="matrix(1 0 0 1 32.0072 105.8597)" fill="#878787" font-family="'SourceSansPro-Regular'" font-size="24">“La Técnica al Servicio de la Patria”</text>
</g>
</svg>
